<svg width="18" height="18" viewBox="0 0 18 18" fill="none" xmlns="http://www.w3.org/2000/svg">
	<path d="M9.00033 15.6667C7.23222 15.6667 5.53652 14.9644 4.28628 13.7141C3.03604 12.4639 2.33366 10.7682 2.33366 9.00008C2.33366 7.23197 3.03604 5.53628 4.28628 4.28604C5.53652 3.03579 7.23222 2.33341 9.00033 2.33341C10.7684 2.33341 12.4641 3.03579 13.7144 4.28604C14.9646 5.53628 15.667 7.23197 15.667 9.00008C15.667 10.7682 14.9646 12.4639 13.7144 13.7141C12.4641 14.9644 10.7684 15.6667 9.00033 15.6667ZM9.00033 0.666748C7.90598 0.666748 6.82234 0.882296 5.8113 1.30109C4.80025 1.71987 3.88159 2.3337 3.10777 3.10752C1.54497 4.67033 0.666992 6.78994 0.666992 9.00008C0.666992 11.2102 1.54497 13.3298 3.10777 14.8926C3.88159 15.6665 4.80025 16.2803 5.8113 16.6991C6.82234 17.1179 7.90598 17.3334 9.00033 17.3334C11.2105 17.3334 13.3301 16.4554 14.8929 14.8926C16.4557 13.3298 17.3337 11.2102 17.3337 9.00008C17.3337 7.90573 17.1181 6.8221 16.6993 5.81105C16.2805 4.80001 15.6667 3.88135 14.8929 3.10752C14.1191 2.3337 13.2004 1.71987 12.1894 1.30109C11.1783 0.882296 10.0947 0.666748 9.00033 0.666748ZM9.00033 4.83342C7.89526 4.83342 6.83545 5.2724 6.05405 6.0538C5.27265 6.83521 4.83366 7.89501 4.83366 9.00008C4.83366 10.1052 5.27265 11.165 6.05405 11.9464C6.83545 12.7278 7.89526 13.1667 9.00033 13.1667C10.1054 13.1667 11.1652 12.7278 11.9466 11.9464C12.728 11.165 13.167 10.1052 13.167 9.00008C13.167 7.89501 12.728 6.83521 11.9466 6.0538C11.1652 5.2724 10.1054 4.83342 9.00033 4.83342Z" fill="#676767"/>
</svg>
